<?xml version="1.0" standalone="no"?>
<!DOCTYPE svg PUBLIC "-//W3C//DTD SVG 20010904//EN"
 "http://www.w3.org/TR/2001/REC-SVG-20010904/DTD/svg10.dtd">
<svg version="1.0" xmlns="http://www.w3.org/2000/svg"
 width="512.000000pt" height="512.000000pt" viewBox="0 0 512.000000 512.000000"
 preserveAspectRatio="xMidYMid meet">

<g transform="translate(0.000000,512.000000) scale(0.100000,-0.100000)"
fill="#000000" stroke="none">
<path d="M2145 5003 c-260 -11 -653 -87 -881 -171 -499 -185 -905 -562 -1092
-1012 -60 -146 -102 -353 -102 -503 0 -169 43 -389 109 -557 126 -320 324
-615 644 -958 61 -65 100 -118 121 -162 31 -64 31 -67 30 -220 0 -145 -7 -202
-47 -432 -7 -36 -15 -70 -20 -74 -4 -4 -6 -21 -6 -38 1 -20 3 -24 6 -11 2 11
8 29 12 40 5 11 13 38 19 60 6 22 15 58 21 80 48 182 73 450 50 535 -26 98
-47 127 -228 336 -310 356 -517 723 -594 1054 -30 129 -37 188 -37 322 0 132
5 171 37 308 53 228 188 461 386 667 275 285 582 456 982 548 208 47 367 71
587 86 379 27 847 -50 1163 -191 22 -10 65 -28 95 -41 203 -86 434 -260 574
-434 152 -188 213 -306 309 -595 61 -185 71 -219 100 -340 41 -170 47 -210 57
-346 10 -153 20 -208 54 -297 68 -182 253 -450 358 -519 79 -53 93 -72 93
-129 0 -42 -5 -53 -37 -86 -21 -21 -67 -54 -104 -73 -37 -19 -78 -50 -93 -69
-24 -32 -26 -41 -27 -153 -1 -132 -6 -142 -65 -158 -70 -19 -87 -58 -49 -115
29 -44 25 -65 -25 -124 -55 -65 -62 -87 -44 -160 21 -86 19 -312 -5 -381 -47
-140 -157 -271 -258 -307 -45 -15 -84 -18 -248 -18 -107 0 -238 6 -290 13
-183 25 -358 52 -655 102 -165 27 -316 49 -335 49 l-35 -1 35 -8 c19 -4 139
-28 265 -53 127 -26 253 -51 280 -57 94 -19 200 -38 310 -54 61 -10 142 -22
180 -29 104 -17 449 -16 505 3 150 48 280 214 324 409 21 94 21 243 0 326
l-16 65 28 36 c66 81 74 96 74 141 0 24 -4 53 -10 63 -8 16 -4 22 32 42 74 41
83 63 80 187 -3 96 -1 110 18 134 11 14 31 29 43 33 32 10 119 67 152 100 104
104 78 251 -61 340 -79 51 -199 212 -282 380 -69 139 -92 230 -92 359 0 46 -4
106 -9 132 -5 26 -17 91 -26 143 -29 163 -115 450 -199 663 -112 284 -323 546
-584 725 -322 221 -763 362 -1219 392 -141 9 -202 10 -358 3z"/>
<path d="M2073 4863 c9 -2 25 -2 35 0 9 3 1 5 -18 5 -19 0 -27 -2 -17 -5z"/>
<path d="M1698 4813 c6 -2 18 -2 25 0 6 3 1 5 -13 5 -14 0 -19 -2 -12 -5z"/>
<path d="M1568 4783 c7 -3 16 -2 19 1 4 3 -2 6 -13 5 -11 0 -14 -3 -6 -6z"/>
<path d="M1488 4763 c7 -3 16 -2 19 1 4 3 -2 6 -13 5 -11 0 -14 -3 -6 -6z"/>
<path d="M1378 4733 c6 -2 18 -2 25 0 6 3 1 5 -13 5 -14 0 -19 -2 -12 -5z"/>
<path d="M1238 4683 c7 -3 16 -2 19 1 4 3 -2 6 -13 5 -11 0 -14 -3 -6 -6z"/>
<path d="M1168 4653 c7 -3 16 -2 19 1 4 3 -2 6 -13 5 -11 0 -14 -3 -6 -6z"/>
<path d="M1128 4633 c7 -3 16 -2 19 1 4 3 -2 6 -13 5 -11 0 -14 -3 -6 -6z"/>
<path d="M1055 4602 c-27 -15 -51 -30 -53 -34 -2 -5 -11 -8 -20 -9 -10 0 -12
-3 -5 -5 6 -3 30 6 52 20 22 14 45 26 50 26 5 0 14 7 21 15 16 19 15 19 -45
-13z"/>
<path d="M2312 4560 c0 -14 2 -19 5 -12 2 6 2 18 0 25 -3 6 -5 1 -5 -13z"/>
<path d="M2212 4545 c0 -16 2 -22 5 -12 2 9 2 23 0 30 -3 6 -5 -1 -5 -18z"/>
<path d="M2262 4545 c0 -16 2 -22 5 -12 2 9 2 23 0 30 -3 6 -5 -1 -5 -18z"/>
<path d="M1940 4542 c0 -12 19 -26 26 -19 2 2 -2 10 -11 17 -9 8 -15 8 -15 2z"/>
<path d="M930 4530 c-8 -5 -12 -11 -10 -14 3 -2 14 2 24 10 22 15 10 19 -14 4z"/>
<path d="M840 4468 c-119 -89 -247 -208 -318 -298 -21 -25 -40 -47 -43 -50
-15 -14 -89 -121 -89 -130 0 -5 -4 -10 -9 -10 -10 0 -24 -30 -17 -37 2 -2 20
23 41 56 20 34 42 67 48 74 7 6 34 39 61 72 56 67 203 213 256 254 19 14 44
34 55 44 11 10 35 27 53 38 17 12 32 23 32 25 0 10 -19 0 -70 -38z"/>
<path d="M1995 4480 c3 -5 8 -10 11 -10 2 0 4 5 4 10 0 6 -5 10 -11 10 -5 0
-7 -4 -4 -10z"/>
<path d="M2412 4470 c0 -14 2 -19 5 -12 2 6 2 18 0 25 -3 6 -5 1 -5 -13z"/>
<path d="M2293 4463 c8 -10 17 -31 20 -48 l4 -30 2 33 c0 18 -5 40 -13 48 -21
20 -32 17 -13 -3z"/>
<path d="M2242 4385 c0 -49 3 -70 7 -55 4 14 4 50 1 80 -7 53 -7 52 -8 -25z"/>
<path d="M2361 4448 c-2 -24 17 -68 29 -68 5 0 10 9 10 20 0 11 -6 20 -14 20
-8 0 -17 10 -19 23 -3 13 -5 15 -6 5z"/>
<path d="M2150 4446 c0 -2 9 -6 20 -9 11 -3 20 -1 20 4 0 5 -9 9 -20 9 -11 0
-20 -2 -20 -4z"/>
<path d="M1812 4345 c1 -72 1 -75 8 -30 3 27 3 63 -1 80 -5 20 -7 3 -7 -50z"/>
<path d="M2047 4413 c-4 -3 -7 -25 -6 -47 l1 -41 9 44 c9 45 8 56 -4 44z"/>
<path d="M1705 4401 l-30 -7 25 -7 c35 -9 37 -9 44 8 3 8 2 14 -2 14 -4 -1
-20 -4 -37 -8z"/>
<path d="M1987 4381 c-4 -17 -3 -21 5 -13 5 5 8 16 6 23 -3 8 -7 3 -11 -10z"/>
<path d="M2112 4380 c0 -14 2 -19 5 -12 2 6 2 18 0 25 -3 6 -5 1 -5 -13z"/>
<path d="M1860 4379 c-13 -7 -12 -9 2 -9 13 0 18 -11 21 -47 l3 -48 2 52 c2
55 -5 67 -28 52z"/>
<path d="M1930 4350 c0 -39 15 -60 40 -59 9 0 5 4 -9 10 -18 7 -22 14 -17 32
3 12 1 29 -4 37 -7 11 -10 6 -10 -20z"/>
<path d="M2180 4366 c0 -9 5 -16 10 -16 6 0 10 4 10 9 0 6 -4 13 -10 16 -5 3
-10 -1 -10 -9z"/>
<path d="M2280 4370 c-9 -6 -10 -10 -3 -10 6 0 15 5 18 10 8 12 4 12 -15 0z"/>
<path d="M2125 4340 c3 -5 11 -10 16 -10 6 0 7 5 4 10 -3 6 -11 10 -16 10 -6
0 -7 -4 -4 -10z"/>
<path d="M2163 4235 c0 -27 2 -38 4 -22 2 15 2 37 0 50 -2 12 -4 0 -4 -28z"/>
<path d="M2112 4205 c0 -16 2 -22 5 -12 2 9 2 23 0 30 -3 6 -5 -1 -5 -18z"/>
<path d="M1780 4181 c0 -6 4 -13 10 -16 6 -3 7 1 4 9 -7 18 -14 21 -14 7z"/>
<path d="M1561 4104 c0 -11 3 -14 6 -6 3 7 2 16 -1 19 -3 4 -6 -2 -5 -13z"/>
<path d="M1175 4080 c3 -5 8 -10 11 -10 2 0 4 5 4 10 0 6 -5 10 -11 10 -5 0
-7 -4 -4 -10z"/>
<path d="M2783 4033 c9 -2 25 -2 35 0 9 3 1 5 -18 5 -19 0 -27 -2 -17 -5z"/>
<path d="M2757 4013 c-12 -19 10 -52 38 -59 25 -6 29 -13 25 -49 -1 -15 1 -17
10 -8 20 18 4 57 -29 71 -18 8 -31 22 -33 35 -2 15 -6 18 -11 10z"/>
<path d="M2642 3933 l-2 -83 28 1 c26 0 26 1 5 11 -19 9 -23 20 -26 82 l-3 71
-2 -82z"/>
<path d="M2540 3961 c0 -13 6 -21 16 -21 12 0 15 -7 12 -27 -2 -18 3 -35 14
-45 23 -23 23 -7 -1 57 -20 52 -41 71 -41 36z"/>
<path d="M2520 3910 c0 -8 -3 -26 -6 -40 -3 -14 -2 -20 3 -14 4 6 13 13 20 15
9 3 8 10 -2 29 -9 15 -14 19 -15 10z"/>
<path d="M2768 3873 c7 -3 16 -2 19 1 4 3 -2 6 -13 5 -11 0 -14 -3 -6 -6z"/>
<path d="M3552 3830 c0 -14 2 -19 5 -12 2 6 2 18 0 25 -3 6 -5 1 -5 -13z"/>
<path d="M291 3814 c0 -11 3 -14 6 -6 3 7 2 16 -1 19 -3 4 -6 -2 -5 -13z"/>
<path d="M3413 3820 c19 -12 22 -45 8 -84 -8 -18 -6 -28 5 -37 13 -11 15 -4
12 57 -3 60 -6 69 -23 72 -18 2 -18 2 -2 -8z"/>
<path d="M3491 3778 c11 -29 24 -59 29 -68 8 -13 9 -13 10 1 0 9 2 32 5 50 4
29 3 30 -4 9 -8 -24 -9 -24 -27 17 -27 61 -38 53 -13 -9z"/>
<path d="M3152 3738 c-2 -74 1 -88 14 -88 10 0 12 4 7 13 -4 6 -11 46 -14 87
l-6 75 -1 -87z"/>
<path d="M3361 3796 c-7 -8 -11 -34 -9 -58 3 -37 6 -43 28 -46 l25 -3 -22 16
c-26 18 -32 72 -11 93 7 7 9 12 6 12 -3 0 -11 -6 -17 -14z"/>
<path d="M3270 3787 c32 -16 39 -69 13 -100 l-18 -22 23 19 c15 13 22 30 22
56 0 41 -14 60 -44 60 -19 0 -18 -2 4 -13z"/>
<path d="M3224 3766 c-10 -26 1 -89 16 -94 12 -4 13 -2 3 9 -7 7 -13 30 -13
50 0 21 6 40 13 42 9 4 9 6 -1 6 -7 1 -15 -5 -18 -13z"/>
<path d="M2889 3740 c-5 -51 -4 -140 2 -140 10 0 17 112 8 140 l-7 25 -3 -25z"/>
<path d="M3062 3743 c33 -5 46 -42 29 -79 -8 -18 -18 -24 -34 -22 -18 2 -23
11 -28 48 l-6 45 -1 -46 c-2 -57 14 -75 52 -58 28 13 43 61 31 98 -5 16 -14
21 -38 20 -30 -2 -31 -2 -5 -6z"/>
<path d="M2798 3715 c-1 -10 -1 -44 0 -76 3 -53 6 -59 25 -59 16 0 18 3 9 9
-9 5 -12 27 -11 65 2 54 -15 100 -23 61z"/>
<path d="M2949 3714 c19 -14 22 -23 18 -50 -3 -19 -1 -36 4 -39 10 -7 12 48 3
83 -4 14 -14 22 -27 22 -21 0 -21 0 2 -16z"/>
<path d="M2563 3703 c-18 -4 -22 -12 -25 -56 -1 -29 0 -68 3 -87 6 -33 6 -33
8 -6 0 16 9 35 19 42 16 13 16 13 0 14 -14 0 -18 9 -18 39 0 40 14 52 53 43
22 -4 23 -45 1 -66 -8 -9 -11 -16 -5 -16 12 0 41 40 41 57 0 16 -28 43 -43 42
-7 -1 -22 -4 -34 -6z"/>
<path d="M2705 3676 c-18 -13 -18 -14 9 -9 28 6 28 5 25 -43 -2 -27 0 -48 4
-46 4 1 7 4 7 7 0 3 0 28 0 55 0 54 -10 62 -45 36z"/>
<path d="M3417 3668 c-3 -9 -16 -18 -29 -21 -19 -4 -20 -4 -3 -5 27 -2 48 13
43 29 -3 10 -6 9 -11 -3z"/>
<path d="M2671 3614 c-1 -39 3 -53 15 -58 10 -4 13 -2 7 7 -4 6 -10 32 -14 57
l-6 45 -2 -51z"/>
<path d="M2365 3610 c-4 -6 -4 -14 -1 -17 3 -4 6 -1 6 5 0 21 30 13 40 -10 10
-23 10 -23 7 2 -2 27 -39 41 -52 20z"/>
<path d="M2227 3572 c-11 -12 -17 -36 -17 -65 0 -42 2 -47 23 -47 20 1 20 2 5
11 -12 7 -18 22 -18 48 0 44 19 66 50 56 11 -4 20 -2 20 4 0 18 -46 12 -63 -7z"/>
<path d="M2341 3544 c-1 -39 3 -53 15 -58 30 -11 38 -6 15 10 -15 11 -21 23
-18 38 3 11 1 30 -3 41 -6 14 -9 6 -9 -31z"/>
<path d="M2136 3555 c4 -8 10 -15 15 -15 5 0 9 7 9 15 0 8 -7 15 -15 15 -9 0
-12 -6 -9 -15z"/>
<path d="M2098 3549 c-22 -12 -33 -71 -19 -98 7 -12 21 -21 34 -20 l22 0 -22
9 c-18 7 -23 17 -23 46 0 21 7 46 17 56 18 20 16 22 -9 7z"/>
<path d="M2280 3530 c-2 -19 -4 -50 -5 -67 -1 -36 -10 -49 -40 -56 -19 -4 -19
-5 1 -6 39 -2 55 30 51 100 -2 43 -4 52 -7 29z"/>
<path d="M2150 3509 c0 -8 -3 -24 -6 -36 -5 -17 -2 -23 10 -23 12 0 14 7 9 33
-7 35 -13 48 -13 26z"/>
<path d="M1868 3498 c24 -12 29 -46 11 -80 -8 -15 -8 -22 0 -28 8 -5 9 -14 2
-33 -6 -15 -7 -27 -2 -27 14 0 21 39 21 113 0 67 0 67 -27 66 -28 0 -28 -1 -5
-11z"/>
<path d="M1940 3467 c0 -45 13 -67 40 -67 12 1 12 2 -2 11 -13 7 -18 23 -18
54 0 25 -4 45 -10 45 -5 0 -10 -19 -10 -43z"/>
<path d="M1743 3466 c9 -13 17 -41 20 -62 l4 -39 1 43 c2 45 -11 82 -30 82 -6
0 -4 -10 5 -24z"/>
<path d="M1812 3429 c-2 -33 2 -49 13 -52 8 -4 17 -2 20 2 3 5 -2 11 -9 14 -8
3 -17 23 -19 44 -3 36 -4 36 -5 -8z"/>
<path d="M1428 3454 c-5 -4 -8 -40 -8 -80 0 -40 3 -75 8 -77 4 -3 25 -1 47 3
l40 8 -37 1 -37 1 -3 76 c-2 42 -6 72 -10 68z"/>
<path d="M1599 3447 c7 -9 13 -37 13 -62 0 -28 4 -45 11 -45 9 0 11 17 7 57
-4 47 -9 58 -25 62 -17 3 -17 1 -6 -12z"/>
<path d="M1681 3403 c1 -65 5 -61 12 10 2 26 1 47 -4 47 -5 0 -9 -26 -8 -57z"/>
<path d="M2015 3450 c-7 -12 2 -30 16 -30 12 0 12 27 0 35 -5 3 -12 1 -16 -5z"/>
<path d="M1211 3340 c1 -68 3 -79 10 -55 13 42 13 99 0 121 -8 15 -10 0 -10
-66z"/>
<path d="M1548 3414 c-5 -4 -8 -22 -8 -39 0 -35 21 -60 42 -52 8 4 7 6 -4 6
-13 1 -18 12 -20 47 -2 25 -6 42 -10 38z"/>
<path d="M1288 3350 c12 -29 18 -34 20 -20 4 21 -14 60 -28 60 -5 0 -1 -18 8
-40z"/>
<path d="M1117 3342 c-28 -31 -17 -136 11 -107 3 3 1 10 -6 14 -8 5 -12 23
-10 47 2 29 9 42 28 51 16 8 19 13 9 13 -9 0 -23 -8 -32 -18z"/>
<path d="M1030 3332 c0 -4 7 -16 15 -26 15 -19 15 -19 15 1 0 11 -7 23 -15 27
-8 3 -15 2 -15 -2z"/>
<path d="M1838 3323 c7 -3 16 -2 19 1 4 3 -2 6 -13 5 -11 0 -14 -3 -6 -6z"/>
<path d="M606 3294 c-27 -26 -19 -52 24 -79 40 -25 53 -58 28 -68 -8 -4 -7 -6
3 -6 18 -1 27 23 21 51 -2 9 -18 23 -36 32 -19 9 -36 22 -39 30 -8 21 14 44
48 49 l30 4 -32 2 c-17 0 -39 -6 -47 -15z"/>
<path d="M875 3299 c-4 -6 -4 -13 -1 -16 3 -4 6 -1 6 5 0 7 9 12 20 12 11 0
20 -7 20 -16 0 -8 4 -13 10 -9 5 3 7 12 3 20 -6 17 -49 20 -58 4z"/>
<path d="M976 3292 c-11 -33 2 -80 25 -87 11 -4 23 -4 26 -1 4 3 -1 6 -9 6
-15 0 -28 19 -28 41 0 5 10 14 23 19 l22 9 -22 0 c-12 1 -23 9 -25 19 -3 14
-5 13 -12 -6z"/>
<path d="M1296 3291 c-4 -7 -5 -15 -2 -18 9 -9 19 4 14 18 -4 11 -6 11 -12 0z"/>
<path d="M783 3269 c19 -11 25 -84 7 -92 -6 -3 -5 -4 2 -3 8 2 14 22 16 54 3
49 2 52 -20 52 -20 -1 -21 -2 -5 -11z"/>
<path d="M850 3237 c0 -19 7 -40 15 -47 18 -15 20 1 3 18 -8 8 -8 15 1 25 9
11 8 17 -4 27 -13 11 -15 8 -15 -23z"/>
<path d="M720 3178 l0 -83 17 34 c13 26 14 36 5 39 -15 5 -16 46 -2 73 8 15 7
19 -5 19 -12 0 -15 -15 -15 -82z"/>
<path d="M603 3123 c9 -2 23 -2 30 0 6 3 -1 5 -18 5 -16 0 -22 -2 -12 -5z"/>
<path d="M2931 3113 c7 -10 15 -20 16 -22 2 -2 3 3 3 11 0 9 -7 19 -16 22 -15
6 -15 4 -3 -11z"/>
<path d="M2727 3094 c-4 -4 -7 -19 -7 -33 l0 -25 16 23 c15 21 7 51 -9 35z"/>
<path d="M2807 3093 c-4 -3 -6 -27 -6 -52 l2 -46 6 40 c4 22 10 46 14 53 8 12
-5 17 -16 5z"/>
<path d="M2871 3058 c-1 -32 3 -39 24 -44 14 -4 29 -4 32 0 4 3 -3 6 -15 6
-15 0 -23 8 -28 28 -10 46 -12 48 -13 10z"/>
<path d="M2408 3063 c7 -3 16 -2 19 1 4 3 -2 6 -13 5 -11 0 -14 -3 -6 -6z"/>
<path d="M2652 3063 c13 -3 18 -18 21 -56 l3 -52 2 58 c2 53 1 57 -20 56 -17
-1 -18 -3 -6 -6z"/>
<path d="M2364 3035 c-3 -8 -4 -20 -1 -27 3 -7 6 -3 6 9 1 12 7 24 14 26 9 4
9 6 -1 6 -7 1 -15 -6 -18 -14z"/>
<path d="M2600 3043 c0 -5 4 -14 9 -21 6 -10 10 -9 14 7 3 14 0 21 -9 21 -8 0
-14 -3 -14 -7z"/>
<path d="M3000 3040 c0 -5 5 -10 11 -10 5 0 7 5 4 10 -3 6 -8 10 -11 10 -2 0
-4 -4 -4 -10z"/>
<path d="M660 3025 c-29 -34 13 -73 45 -41 12 12 14 20 5 36 -13 24 -33 26
-50 5z"/>
<path d="M2540 3035 c0 -6 4 -15 9 -20 5 -6 11 -19 14 -30 5 -20 5 -19 6 1 0
11 -6 29 -14 40 -8 10 -15 14 -15 9z"/>
<path d="M2491 3014 c0 -11 3 -14 6 -6 3 7 2 16 -1 19 -3 4 -6 -2 -5 -13z"/>
<path d="M2735 2980 c3 -5 8 -10 11 -10 2 0 4 5 4 10 0 6 -5 10 -11 10 -5 0
-7 -4 -4 -10z"/>
<path d="M2220 2959 c0 -5 5 -7 10 -4 6 3 10 8 10 11 0 2 -4 4 -10 4 -5 0 -10
-5 -10 -11z"/>
<path d="M2361 2940 c10 -27 15 -30 52 -29 l42 2 -35 6 c-23 4 -38 14 -45 29
-15 33 -26 27 -14 -8z"/>
<path d="M2021 2946 c-8 -10 -9 -16 -1 -21 5 -3 10 -26 10 -51 0 -39 2 -44 23
-43 18 1 19 2 3 6 -16 4 -18 12 -14 59 5 58 -2 73 -21 50z"/>
<path d="M2162 2940 c0 -14 2 -19 5 -12 2 6 2 18 0 25 -3 6 -5 1 -5 -13z"/>
<path d="M2490 2948 c0 -12 7 -18 23 -17 15 0 17 2 7 6 -8 3 -18 11 -22 17 -5
7 -8 4 -8 -6z"/>
<path d="M1840 2931 c-14 -27 -13 -41 5 -41 10 0 15 10 15 30 0 35 -5 38 -20
11z"/>
<path d="M521 2924 c0 -11 3 -14 6 -6 3 7 2 16 -1 19 -3 4 -6 -2 -5 -13z"/>
<path d="M1732 2843 c2 -70 2 -72 5 -20 2 31 8 57 13 57 6 0 10 -5 10 -12 0
-6 3 -8 7 -5 8 8 -17 57 -29 57 -4 0 -7 -35 -6 -77z"/>
<path d="M1947 2913 c15 -3 26 -15 32 -36 8 -29 9 -30 10 -6 1 31 -16 49 -43
48 -19 -2 -19 -2 1 -6z"/>
<path d="M2091 2899 c-1 -31 21 -53 46 -46 14 4 13 5 -4 6 -16 1 -25 10 -32
34 -9 30 -9 30 -10 6z"/>
<path d="M1911 2894 c0 -11 3 -14 6 -6 3 7 2 16 -1 19 -3 4 -6 -2 -5 -13z"/>
<path d="M2162 2885 c0 -16 2 -22 5 -12 2 9 2 23 0 30 -3 6 -5 -1 -5 -18z"/>
<path d="M1542 2828 c-2 -28 1 -39 7 -33 15 16 18 75 4 75 -5 0 -9 -19 -11
-42z"/>
<path d="M1780 2845 c0 -8 7 -15 16 -15 14 0 14 3 4 15 -7 8 -14 15 -16 15 -2
0 -4 -7 -4 -15z"/>
<path d="M1597 2842 c6 -4 13 -28 16 -52 l4 -45 1 53 c2 44 -1 52 -15 52 -12
0 -14 -3 -6 -8z"/>
<path d="M1910 2830 c0 -11 4 -20 9 -20 5 0 7 9 4 20 -3 11 -7 20 -9 20 -2 0
-4 -9 -4 -20z"/>
<path d="M1378 2792 c9 -11 21 -17 25 -15 11 7 -13 33 -29 33 -11 0 -10 -5 4
-18z"/>
<path d="M2791 2763 c1 -53 6 -49 11 10 2 20 0 37 -4 37 -4 0 -8 -21 -7 -47z"/>
<path d="M2728 2788 c5 -7 12 -26 15 -43 4 -28 4 -28 6 6 1 26 -4 39 -15 43
-13 5 -14 3 -6 -6z"/>
<path d="M2870 2779 c0 -18 2 -19 15 -9 12 10 15 10 15 0 0 -8 3 -10 6 -7 8 8
-14 37 -27 37 -5 0 -9 -10 -9 -21z"/>
<path d="M1038 2783 c7 -3 16 -2 19 1 4 3 -2 6 -13 5 -11 0 -14 -3 -6 -6z"/>
<path d="M990 2765 c-17 -21 -9 -48 20 -62 32 -16 50 -41 44 -61 -5 -14 -4
-14 6 1 16 26 3 54 -30 66 -32 11 -40 37 -18 59 8 8 8 12 1 12 -6 0 -16 -7
-23 -15z"/>
<path d="M1282 2760 c0 -14 2 -19 5 -12 2 6 2 18 0 25 -3 6 -5 1 -5 -13z"/>
<path d="M1331 2744 c-1 -28 4 -44 14 -48 12 -4 13 -2 2 15 -10 17 -9 22 7 35
16 11 17 14 4 14 -9 0 -19 6 -21 13 -3 6 -6 -7 -6 -29z"/>
<path d="M1431 2764 c-1 -24 24 -62 35 -52 4 5 0 16 -8 25 -9 10 -18 25 -21
33 -4 11 -6 9 -6 -6z"/>
<path d="M2672 2744 c-2 -31 2 -44 14 -48 13 -5 14 -3 6 6 -6 7 -12 29 -15 48
-4 34 -4 34 -5 -6z"/>
<path d="M2438 2752 c-6 -31 7 -105 20 -108 7 -1 8 0 2 3 -13 6 -13 80 0 88
14 9 12 22 -4 28 -8 3 -16 -2 -18 -11z"/>
<path d="M2564 2757 c-8 -21 2 -35 16 -21 5 5 6 15 0 24 -8 12 -10 12 -16 -3z"/>
<path d="M1156 2746 c21 -15 30 -14 19 3 -3 6 -14 11 -23 11 -13 0 -13 -2 4
-14z"/>
<path d="M1101 2663 c1 -43 4 -69 6 -58 3 11 10 23 16 27 7 4 7 11 -2 22 -9
10 -11 29 -8 51 3 19 2 35 -4 35 -5 0 -8 -35 -8 -77z"/>
<path d="M1220 2721 c0 -34 11 -51 34 -50 20 0 20 1 -3 10 -17 7 -22 15 -18
29 3 11 1 23 -4 26 -5 3 -9 -4 -9 -15z"/>
<path d="M2192 2665 c1 -57 3 -66 5 -30 2 28 8 54 13 58 4 5 23 -13 41 -40 27
-39 34 -44 37 -28 3 10 -1 21 -8 23 -12 4 -24 17 -69 72 l-20 25 1 -80z"/>
<path d="M2511 2724 c0 -11 3 -14 6 -6 3 7 2 16 -1 19 -3 4 -6 -2 -5 -13z"/>
<path d="M2392 2710 c0 -14 2 -19 5 -12 2 6 2 18 0 25 -3 6 -5 1 -5 -13z"/>
<path d="M2592 2710 c1 -13 9 -25 16 -28 17 -5 15 16 -4 35 -14 15 -16 14 -12
-7z"/>
<path d="M596 2703 c-4 -9 -2 -21 4 -27 7 -7 10 -2 10 17 0 31 -5 34 -14 10z"/>
<path d="M521 2660 c1 -55 1 -55 9 -15 4 22 4 47 -1 55 -5 10 -8 -5 -8 -40z"/>
<path d="M2337 2690 c-7 -27 -1 -39 12 -24 5 5 5 18 2 28 -7 18 -8 18 -14 -4z"/>
<path d="M2527 2703 c-13 -12 -7 -33 8 -33 8 0 15 9 15 20 0 20 -11 26 -23 13z"/>
<path d="M2340 2638 c0 -13 7 -18 28 -17 21 1 22 2 7 6 -11 3 -23 10 -27 17
-5 7 -8 5 -8 -6z"/>
<path d="M1003 2623 c9 -2 23 -2 30 0 6 3 -1 5 -18 5 -16 0 -22 -2 -12 -5z"/>
<path d="M5004 1857 c-10 -13 -32 -33 -48 -45 -16 -12 -26 -22 -22 -22 13 0
77 53 87 72 13 25 7 23 -17 -5z"/>
<path d="M4818 1732 c-16 -9 -28 -23 -28 -31 0 -10 8 -7 28 11 15 14 34 28 42
31 13 5 13 5 0 6 -8 0 -27 -7 -42 -17z"/>
<path d="M4743 1423 c-12 -13 -19 -23 -14 -23 10 0 46 39 40 43 -2 2 -14 -7
-26 -20z"/>
<path d="M4685 1379 c-11 -17 1 -21 15 -4 8 9 8 15 2 15 -6 0 -14 -5 -17 -11z"/>
<path d="M4630 1179 c-32 -36 -47 -59 -38 -59 7 0 80 91 77 95 -2 1 -20 -15
-39 -36z"/>
<path d="M871 764 c0 -11 3 -14 6 -6 3 7 2 16 -1 19 -3 4 -6 -2 -5 -13z"/>
<path d="M2598 543 c12 -2 30 -2 40 0 9 3 -1 5 -23 4 -22 0 -30 -2 -17 -4z"/>
<path d="M4502 510 c-7 -11 -8 -20 -3 -20 9 0 24 30 18 36 -1 2 -8 -6 -15 -16z"/>
<path d="M4423 420 c-33 -33 -56 -60 -51 -60 9 0 84 71 107 103 25 33 4 17
-56 -43z"/>
<path d="M4325 340 c-13 -6 -15 -9 -5 -9 8 0 22 4 30 9 18 12 2 12 -25 0z"/>
</g>
</svg>
